<svg aria-hidden="true" style="width:0;height:0;position:absolute;overflow:hidden" xmlns="http://www.w3.org/2000/svg"><defs><symbol id="icon-burger" viewBox="0 0 46 32"><path stroke="#d41443" stroke-width="2.286" style="stroke:var(--color1,#d41443)" d="M0 2.286h45.714M0 16h45.714M0 29.714h45.714"/></symbol><symbol id="icon-home" viewBox="0 0 32 32"><path d="M32 18.451 16 6.031 0 18.451v-5.064L16 .967l16 12.42zM28 18v12h-8v-8h-8v8H4V18l12-9z"/></symbol><symbol id="icon-button-mark" viewBox="0 0 20 32"><path d="M.953 5.565A3.177 3.177 0 0 1-.098 3.201c0-.83.317-1.585.837-2.152l-.002.002C1.912-.248 3.922-.371 5.22.835l14.191 12.8c1.299 1.175 1.391 3.185.216 4.514l-.247.216-14.16 12.8a3.185 3.185 0 0 1-4.269-4.728l.003-.002 11.563-10.45L.954 5.566z"/></symbol><symbol id="icon-close" viewBox="0 0 32 32"><path stroke="#fff" stroke-width="2" style="stroke:var(--color2,#fff)" d="m2.52 2 26.96 28M2 29.48 30 2.52"/></symbol><symbol id="icon-facebook" viewBox="0 0 32 32"><path d="M20.446 15.981h-2.611V25.6H13.88v-9.619H12v-3.379h1.88v-2.187c0-1.564.739-4.014 3.991-4.014l2.929.012v3.281h-2.125c-.348 0-.839.176-.839.922v1.989h2.955l-.345 3.377z"/></symbol><symbol id="icon-github" viewBox="0 0 32 32"><path d="M16 6.588c-5.17 0-9.412 4.242-9.412 9.412 0 4.411 3.096 8.419 7.206 9.412v-3.113a2.314 2.314 0 0 1-1.196-.031c-.556-.164-1.008-.535-1.344-1.099-.214-.36-.593-.753-.988-.724l-.097-1.098c.856-.073 1.594.521 2.033 1.258.196.328.421.52.709.605.278.083.577.043.925-.08.088-.697.408-.958.649-1.327-2.452-.365-3.429-1.666-3.816-2.692-.514-1.364-.238-3.066.67-4.143.018-.021.05-.075.038-.113-.417-1.259.09-2.3.109-2.41.481.141.559-.143 2.089.786l.264.159c.111.066.075.028.186.019a7.787 7.787 0 0 1 1.97-.276h.006a8.021 8.021 0 0 1 2.002.284l.086.009c-.008-.002.024-.006.075-.037 1.911-1.158 1.842-.779 2.355-.946.019.111.519 1.169.106 2.411-.056.171 1.656 1.739.708 4.256-.388 1.026-1.365 2.328-3.816 2.693.314.48.692.734.69 1.722v3.886c4.109-.993 7.206-5 7.206-9.412 0-5.17-4.242-9.412-9.412-9.412z"/></symbol><symbol id="icon-home" viewBox="0 0 35 32"><path d="M34.253 15.613a1.571 1.571 0 0 0-.129-2.254l-.002-.002L19.349.432A1.828 1.828 0 0 0 18.165 0c-.467 0-.893.174-1.217.46l.002-.002L2.129 14.047a1.564 1.564 0 0 0-.071 2.251l.373.387c.613.64 1.611.72 2.224.171l1.107-.992v14.523c0 .893.72 1.613 1.613 1.613h5.773c.891 0 1.613-.72 1.613-1.613v-10.16h7.373v10.16c-.013.891.624 1.613 1.515 1.613h6.123a1.61 1.61 0 0 0 1.611-1.613v-14.32l.685.603c.376.331 1.168.064 1.765-.595l.421-.461z"/></symbol><symbol id="icon-quotes" viewBox="0 0 43 32"><path d="M32.014 0c1.928 0 3.75.52 5.464 1.561s3.107 2.536 4.178 4.488c1.029 1.951 1.543 4.25 1.543 6.894s-.643 5.225-1.928 7.74c-.429.91-1.2 2.081-2.315 3.512a63.65 63.65 0 0 1-3.214 3.707L31.692 32l-2.893-4.813a22.225 22.225 0 0 0 5.306-4.646l.03-.037c1.542-1.821 2.314-3.49 2.314-5.008 0-.781-.171-1.41-.514-1.886a8.361 8.361 0 0 1-5.014 1.626c-1.328 0-2.593-.412-3.793-1.236a8.638 8.638 0 0 1-2.935-3.078l-.022-.043c-.771-1.258-1.157-2.558-1.157-3.902 0-1.518.45-2.97 1.35-4.358a10.313 10.313 0 0 1 3.364-3.356l.044-.025C29.142.414 30.556.002 32.014.002zM8.936 0c1.928 0 3.75.52 5.464 1.561s3.107 2.536 4.178 4.488c1.029 1.951 1.543 4.25 1.543 6.894 0 1.864-.236 3.534-.707 5.008-.472 1.518-1.286 3.1-2.443 4.748-1.114 1.561-2.164 2.862-3.15 3.902-.986 1.084-2.7 2.883-5.143 5.398l-2.893-4.813a22.225 22.225 0 0 0 5.306-4.646l.03-.037c1.542-1.821 2.314-3.49 2.314-5.008 0-.781-.172-1.41-.514-1.886a8.361 8.361 0 0 1-5.014 1.626c-1.328 0-2.593-.412-3.793-1.236a8.638 8.638 0 0 1-2.935-3.078l-.022-.043C.386 11.62 0 10.32 0 8.976c0-1.518.429-2.97 1.286-4.358A10.313 10.313 0 0 1 4.65 1.262l.045-.025C6.065.413 7.479.001 8.937.001z"/></symbol><symbol id="icon-telegram" viewBox="0 0 32 32"><path d="m12.867 18.376-.317 4.169c.455 0 .651-.183.888-.401l2.13-1.901 4.414 3.018c.809.421 1.381.199 1.6-.696l2.897-12.673c.258-1.117-.433-1.554-1.221-1.28L6.226 14.698c-1.162.422-1.145 1.026-.198 1.301l4.355 1.264 10.114-5.907c.476-.295.909-.132.553.163l-8.182 6.856z"/></symbol><symbol id="icon-vector" viewBox="0 0 26 32"><path fill="none" stroke="#ffff" stroke-linejoin="round" stroke-linecap="round" stroke-width="6.4" d="M3.542 3.2 20.367 16 3.542 28.8"/></symbol><symbol id="icon-ellipse" viewBox="0 0 32 32"><path fill="#c7133e" style="fill:var(--color1,#c7133e)" d="M32 16c0 8.837-7.163 16-16 16S0 24.837 0 16 7.163 0 16 0s16 7.163 16 16z"/></symbol><symbol id="icon-Vector-1" viewBox="0 0 26 32"><path fill="none" stroke="#d41443" style="stroke:var(--color1,#d41443)" stroke-linejoin="round" stroke-linecap="round" stroke-width="6.4" d="M5.172 3.2 19.341 16 5.172 28.8"/></symbol><symbol id="icon-close_40px" viewBox="0 0 32 32"><path d="M23.733 10.304 22.229 8.8l-5.963 5.963L10.303 8.8l-1.504 1.504 5.963 5.963-5.963 5.963 1.504 1.504 5.963-5.963 5.963 5.963 1.504-1.504-5.963-5.963 5.963-5.963z"/></symbol><symbol id="icon-arrow-right2" viewBox="0 0 32 32"><path d="m19.414 27.414 10-10a2 2 0 0 0 0-2.828l-10-10a2 2 0 1 0-2.828 2.828L23.172 14H4a2 2 0 1 0 0 4h19.172l-6.586 6.586c-.39.39-.586.902-.586 1.414s.195 1.024.586 1.414a2 2 0 0 0 2.828 0z"/></symbol><symbol id="icon-person" viewBox="0 0 32 32"><path d="M16 16c2.947 0 5.333-2.387 5.333-5.333S18.946 5.334 16 5.334c-2.947 0-5.333 2.387-5.333 5.333S13.054 16 16 16zm0 2.667c-3.56 0-10.667 1.787-10.667 5.333v1.333c0 .733.6 1.333 1.333 1.333h18.667c.733 0 1.333-.6 1.333-1.333V24c0-3.547-7.107-5.333-10.667-5.333z"/></symbol><symbol id="icon-phone" viewBox="0 0 32 32"><path d="m24.882 19.773-3.268-.373a2.561 2.561 0 0 0-2.11.733L17.137 22.5a19.357 19.357 0 0 1-8.478-8.478l2.38-2.38a2.561 2.561 0 0 0 .733-2.11l-.373-3.242a2.575 2.575 0 0 0-2.56-2.277H6.613c-1.454 0-2.663 1.209-2.573 2.663.682 10.987 9.469 19.761 20.443 20.443 1.454.09 2.663-1.119 2.663-2.573V22.32a2.549 2.549 0 0 0-2.264-2.547z"/></symbol><symbol id="icon-email" viewBox="0 0 32 32"><path d="M26.667 5.333H5.334A2.663 2.663 0 0 0 2.681 8l-.013 16c0 1.467 1.2 2.667 2.667 2.667h21.333c1.467 0 2.667-1.2 2.667-2.667V8c0-1.467-1.2-2.667-2.667-2.667zM26.133 11l-9.427 5.893a1.346 1.346 0 0 1-1.413 0L5.866 11a1.132 1.132 0 1 1 1.2-1.92l8.933 5.587 8.933-5.587a1.132 1.132 0 1 1 1.2 1.92z"/><symbol id="icon-30716" viewBox="0 0 42 32"><path d="M40.759.02c-.495.066-.633.092-.907.148-.551.122-.937.228-1.112.313-.224.109-.67.409-1.313.891a25.5 25.5 0 0 1-.957.68c-.505.333-.627.455-.795.785-.148.294-.337.501-.805.891-.68.564-.957.709-1.6.841-.525.109-.716.178-.98.36-.115.079-.27.175-.35.214-.432.221-1.257.426-2.398.6-.689.106-.871.175-1.478.577-.604.399-.726.505-1.095.957-.343.416-.567.62-.759.683-.079.03-.297.142-.485.251-.31.185-.35.218-.445.393-.056.102-.274.432-.485.732-.459.656-.62.937-.782 1.336a2.982 2.982 0 0 1-.297.548c-.096.135-.518.749-.937 1.366-1.072 1.577-1.115 1.633-1.27 1.702-.244.109-.528.33-.98.762-.548.521-.762.666-1.781 1.191-.835.432-.96.505-1.297.749l-.214.155-.429.04c-.762.076-1.039.155-1.343.389-.3.231-.422.254-1.214.231a8.396 8.396 0 0 0-.841.007c-.139.023-.191.017-.343-.049a1.554 1.554 0 0 0-.297-.099c-.106-.017-.132-.043-.228-.211-.32-.581-.732-.924-1.343-1.122-.343-.112-.468-.191-.544-.346-.145-.3-.086-.363.37-.393 1.013-.069 1.722-.208 2.24-.439l.185-.079.086-.32c.168-.627.188-.848.109-1.155-.089-.337-.303-.591-.808-.976-.287-.218-.511-.422-.587-.534-.05-.076-.046-.086.013-.155a.76.76 0 0 0 .115-.172c.112-.224.102-.376-.056-.973-.178-.676-.073-.894.627-1.313.373-.224.445-.3.468-.511.023-.195-.036-.363-.185-.528-.162-.178-.353-.257-.676-.277-.63-.04-1.376.254-1.917.755-.287.267-.376.449-.495 1a2.683 2.683 0 0 1-.155.521.865.865 0 0 1-.409.337c-.066.017-.073.003-.086-.188l-.013-.208-.439-.429c-.544-.534-.673-.623-.911-.63-.185-.007-.287-.05-.841-.343-.284-.152-.327-.218-.33-.501 0-.175.135-.647.264-.927.069-.145.346-.3.825-.468.505-.175.808-.327.881-.432.069-.109.092-.416.043-.591-.056-.198-.264-.389-.501-.462-.505-.152-1.247-.145-1.742.016-.851.28-1.362.68-1.603 1.254-.079.198-.158.33-.224.386-.096.079-.115.082-.35.066-.472-.04-.947-.162-1.534-.396a10.558 10.558 0 0 0-.531-.188l-.205-.059-.02.168c-.05.462-.092 1.392-.076 1.706.036.706.201.986.95 1.636.175.152.363.33.419.402l.102.129-.452.396c-.247.221-.607.525-.798.68s-.558.495-.812.755c-.376.383-.508.498-.68.584a.834.834 0 0 0-.356.294c-.307.412-.492.934-.548 1.527-.026.3-.017.323.356.812.356.472.435.604.567.977.27.762.541 1.039 1.141 1.191.363.089 1.135.158 1.567.142.333-.013.462-.033.805-.135.224-.066.482-.135.574-.155.185-.033.224-.017.713.313.139.096.333.205.435.244.148.063.191.096.221.185.023.059.139.264.261.452.224.35.37.653.373.775 0 .063-.016.066-.191.053-.211-.017-.439.053-.93.277-.277.129-.284.129-.676.125-.218 0-.528-.026-.689-.056-.346-.066-.65-.069-.818-.01a1.932 1.932 0 0 0-.366.238c-.198.155-.244.208-.228.261.023.082.02.389-.007.472-.013.033-.089.082-.178.115a1.555 1.555 0 0 0-.343.208c-.165.129-.191.165-.211.3-.03.208.007.515.082.663.178.346.521.472.99.363.155-.036.175-.033.244.036.043.04.125.165.185.28.125.251.188.313.343.34.254.04.343-.007.696-.366.373-.379.508-.465 1.168-.749.247-.106.459-.211.462-.228.007-.02.059-.099.119-.175.092-.122.125-.142.267-.158.092-.013.241-.053.33-.089.092-.036.211-.073.264-.079l.099-.01.04.277c.119.848.515 1.63 1.178 2.339.119.129.155.188.135.221-.02.023-.135.162-.264.303-.125.145-.336.389-.465.544l-.238.28-.257.04c-.327.053-.736.155-1.603.399a15.84 15.84 0 0 1-1.039.264c-.594.119-1.356.122-1.88.013-.102-.02-.112-.013-.158.096-.063.152-.063.346.003.617s.079.673.023.729c-.063.063-.053.145.04.343.109.228.369.468.802.742.185.119.337.224.337.234 0 .043-.271.129-.511.165-.317.046-.577.013-1.468-.201a12.441 12.441 0 0 0-.805-.172l-.132-.01-.079.247c-.059.195-.073.3-.063.492.013.238.02.251.135.343.181.148.165.224-.115.482-.333.31-.383.432-.277.683.056.139.119.195.432.393.541.343 1.217.531 2.042.567a5.38 5.38 0 0 0 1.963-.264l.313-.106.023-.191a.875.875 0 0 1 .096-.307c.069-.112.092-.122.343-.162.221-.033.554-.122.66-.172.056-.026.201-.148.323-.27l.224-.218.313.007c.383.01.492-.033.716-.3a.904.904 0 0 1 .267-.221c.099-.036.115-.056.132-.195.023-.178.129-.34.432-.666.148-.155.228-.274.277-.412.115-.32.135-.343.465-.518.29-.155.36-.211.94-.798.538-.544.656-.647.841-.732l.214-.102.247.082c.135.046.61.178 1.056.297s.963.261 1.151.313c.416.115.716.125 1.171.033.393-.079.749-.122 1.57-.188.894-.069 1.211-.119 2.194-.343 1.151-.264 1.415-.35 1.801-.587.172-.109.478-.29.676-.402.198-.115.62-.373.937-.577s.643-.402.719-.442c.079-.04.208-.132.28-.198.152-.139.511-.333.617-.333.063 0 .066.02.066.567v.571l.274.092c.419.145.495.162.534.109.02-.026.069-.04.115-.03.102.017.132-.026.284-.426.125-.333.221-.488.303-.488.026 0 .115.03.195.069l.142.069v.241c0 .261.056.706.099.772.017.03.165.043.498.046.409.007.495-.003.62-.056l.142-.066-.023-.396c-.02-.337-.013-.422.033-.541.106-.261.337-.35.495-.191.046.046.109.181.148.32.129.459.142.492.188.528.132.112.772-.168 1.23-.538.188-.152.195-.162.175-.28a1.684 1.684 0 0 0-.129-.356 1.95 1.95 0 0 1-.132-.376l-.023-.145.096.02c.937.201 1.481.139 1.64-.185.086-.172.053-.264-.162-.472-.102-.096-.178-.195-.172-.218.01-.026.234-.073.64-.129l.623-.086.132.148c.178.198.409.518.584.802l.142.231.808.485c.445.264.986.574 1.204.683.518.264 1.062.445 1.336.445.366 0 .67.201 1.145.765.231.274 1.333 1.296 1.818 1.689.152.122.379.29.505.373.211.142.231.148.327.109.152-.063.442-.399.558-.64.119-.251.211-.597.287-1.059.043-.264.059-.663.069-1.97l.017-1.636-.145-.092a4.838 4.838 0 0 0-.422-.221c-.155-.069-.284-.142-.29-.158s-.036-.03-.066-.03c-.03 0-.366-.129-.749-.284-.379-.158-.722-.284-.759-.284s-.178.01-.317.023c-.346.033-.653-.04-1.105-.264-.904-.445-1.475-1.158-1.55-1.93a.764.764 0 0 0-.119-.369 5.104 5.104 0 0 1-.257-.525 4.527 4.527 0 0 0-.251-.495c-.267-.386-.861-.541-1.801-.465-.277.023-.722.059-.993.079-.838.069-1.23-.036-1.63-.435-.274-.274-.393-.525-.439-.924a40.56 40.56 0 0 0-.267-1.781c-.125-.732-.162-1.072-.162-1.531 0-.498-.013-.571-.181-1.026a6.722 6.722 0 0 1-.181-.594c-.162-.666-.294-.864-.93-1.369-.66-.528-.713-.62-.511-.904.231-.327.581-.742.848-1.009.307-.307.769-.594.953-.594a.55.55 0 0 0 .383-.165c.165-.158.35-.208 1.006-.264.541-.046.713-.099 1.29-.412.28-.155.713-.36.957-.459.241-.096.627-.261.854-.366.228-.102.531-.234.676-.294s.356-.175.472-.261c.317-.231.521-.34.901-.468.188-.066.429-.172.531-.234a1.45 1.45 0 0 1 .445-.168 1.42 1.42 0 0 0 .422-.162c.228-.142.528-.29 1.204-.591.726-.323 1.158-.567 1.419-.805l.205-.185.017-.254c.017-.205.03-.261.076-.274.119-.036.323-.29.495-.614a3.52 3.52 0 0 1 .485-.686c.333-.376.439-.558.462-.775l.017-.142-.158-.043c-.158-.04-1.118-.076-1.316-.046z"/></symbol><symbol id="shift" viewBox="0 0 32 32"><path d="M21 28H11a1 1 0 0 1-1-1V16H6a1.002 1.002 0 0 1-.707-1.707l10-10a1 1 0 0 1 1.414 0l10 10A1 1 0 0 1 26 16h-4v11a1 1 0 0 1-1 1zm-9-2h8V15a1 1 0 0 1 1-1h2.586L16 6.414 8.414 14H11a1 1 0 0 1 1 1v11z"/></symbol></symbol></defs></svg>