<svg width="50" height="50" fill="none" xmlns="http://www.w3.org/2000/svg"><path d="M46.29 33.454c-2.018-.716-3.72-.537-5.065.028.226-1.37.735-2.862 1.827-3.876a1.664 1.664 0 0 0-2.263-2.44c-1.92 1.782-2.665 4.295-2.928 6.377a6.335 6.335 0 0 0-1.653-.486l2.954-15.359a1.663 1.663 0 0 0-1.634-1.978h-.32c.147-.782.221-1.558.215-2.297-.025-3.115-1.411-5.461-3.709-6.276-2.202-.782-4.046-.547-5.48.103.228-1.525.773-3.224 2.003-4.366a1.664 1.664 0 1 0-2.263-2.44C25.911 2.36 25.138 5.079 24.878 7.3c-1.149-.544-2.569-.823-4.232-.516-1.71-2.456-4.083-3.587-6.39-3.034-2.268.544-3.684 1.742-4.533 3.066-.64-1.406-1.112-3.128-.705-4.744a1.664 1.664 0 0 0-3.228-.812c-.686 2.728.148 5.43 1.14 7.434-1.588.215-3.309 1.015-4.764 2.916-.903 1.18-1.208 2.653-.931 4.218a1.664 1.664 0 0 0-1.052 1.871L6.134 48.65c.151.784.837 1.35 1.634 1.35h23.808c.798 0 1.483-.566 1.634-1.35l.058-.304c.449.309.931.568 1.448.76 1.979.737 3.823.435 4.756.185.494.132 1.242.279 2.131.279.791 0 1.693-.117 2.625-.464 3.688-1.374 5.648-5.999 5.619-9.653-.024-2.975-1.353-5.218-3.556-5.999ZM35.43 19.048c-.766 7.352-6.957 12.358-15.58 12.358-8.623 0-14.814-5.006-15.58-12.358h31.16ZM25.05 11.742c.288.545.838.886 1.454.886.617 0 1.166-.341 1.454-.886a4.116 4.116 0 0 1 1.202-1.214c.983-.637 2.109-.718 3.442-.245 1.329.471 1.487 2.372 1.494 3.167.005.724-.101 1.502-.298 2.27H22.664c.368-1.859.147-3.894-.452-5.733.589.035 1.131.214 1.636.541a4.117 4.117 0 0 1 1.202 1.214ZM4.81 13.632c.86-1.123 1.847-1.67 3.019-1.67h.003c.891 0 1.588.324 1.666.362.533.296 1.17.269 1.686-.058.517-.33.797-.925.751-1.536-.009-.12-.18-2.959 3.099-3.746 1.37-.33 2.54 1.178 2.978 1.84 1.262 1.908 1.909 4.857 1.214 6.896H4.618c-.22-.692-.28-1.474.19-2.088Zm4.334 33.04L5.845 29.52c.216.207.439.41.668.608 3.45 2.97 8.186 4.606 13.336 4.606s9.887-1.636 13.336-4.607c.08-.069.16-.14.238-.21l-.674 3.505c-.032.01-.063.02-.095.032-2.204.782-3.533 3.024-3.556 6-.015 1.818.464 3.878 1.404 5.658l-.3 1.56H9.142Zm33.923-.684c-1.474.549-2.939.027-2.993.007a1.63 1.63 0 0 0-1.2 0c-.015.006-1.5.55-2.995-.007-2.09-.779-3.472-3.994-3.453-6.509.006-.727.148-2.466 1.341-2.889a4.38 4.38 0 0 1 1.467-.273c1.73 0 2.59 1.269 2.785 1.6.287.547.836.89 1.454.89.619 0 1.168-.343 1.455-.89.244-.414 1.526-2.293 4.252-1.327 1.192.423 1.334 2.161 1.34 2.89.02 2.514-1.363 5.73-3.453 6.508Z" fill="#FFA5BA"/></svg>