<svg width="46" height="52" fill="none" xmlns="http://www.w3.org/2000/svg"><path d="M1.083 18.136c.955 4.38 3.079 8.268 6.424 11.639 2.989 3.023 5.614 4.86 9.763 6.766l2.012.945V51.25h2.812V38.41l.258.076h.001c.373.107.921.107 1.294 0h.001l.258-.076v12.84h2.812V37.469l1.914-.871h.002c4.012-1.85 6.927-3.855 9.763-6.73 4.527-4.597 6.853-9.834 6.853-15.536.02-6.257-3.266-11.375-8.472-13.123-1.12-.389-1.713-.445-3.763-.426M1.083 18.136 23.206 4.64l-.158-.118M1.083 18.136c-.217-.999-.328-2.364-.333-3.698-.005-1.333.097-2.658.315-3.577C2.239 5.68 5.848 1.844 10.522.864M1.083 18.136 10.522.864m22.493-.08.002.25-.002-.25Zm0 0c-1.069.009-1.739.032-2.347.119-.611.087-1.152.238-1.963.492h-.003c-1.93.627-3.828 1.615-5.09 2.652l-.002.002-.562.473m0 0-.882-.651c-2.718-2-5.501-2.973-8.769-3.106h-.002a26.618 26.618 0 0 0-1.682-.003c-.508.016-.953.05-1.191.102m12.526 3.658L10.522.864m10.862 6.015h-.001c-.386-.367-1.087-.872-1.853-1.353-.764-.479-1.573-.92-2.17-1.166a16.247 16.247 0 0 0-2.439-.68c-3.209-.588-5.67.036-7.84 1.966l-.002.002c-.459.4-.944.928-1.293 1.37a4.905 4.905 0 0 0-.377.537 157.47 157.47 0 0 0 1.872.321c2 .312 3.552.73 5.215 1.532 1.658.798 3.417 1.973 5.838 3.785l.002.002c.983.755 2.642 1.721 4.308 2.504l.004.002c.744.367 1.46.734 2.012 1.034.276.15.514.284.695.393.09.055.168.105.23.148.058.04.118.084.16.13.208.222.38.445.517.726.136.28.23.605.296 1.025.131.832.16 2.082.16 4.177 0 1.901.005 2.9.054 3.47.025.284.059.44.099.54a.58.58 0 0 0 .156.219c.4.39.947.374 1.239.05l.006-.007c.08-.084.158-.219.203-.741.044-.52.054-1.36.054-2.8 0-1.905.047-3.064.26-3.864.107-.407.26-.728.474-1.01.212-.28.476-.51.792-.746l.003-.002c.32-.231.598-.382 1.051-.501.44-.116 1.044-.202 2.015-.314 3.03-.336 4.78-.726 6.875-1.523.657-.25 1.143-.437 1.506-.604.366-.168.58-.305.713-.444.123-.129.187-.273.217-.491.032-.231.023-.527.003-.955v-.005c-.019-.747-.208-2.003-.415-2.773v-.001c-1.152-4.358-4.748-7.41-8.64-7.41-2.904 0-6.446 1.364-8.635 3.348l-.002.001c-.357.32-.658.572-.929.746-.271.175-.532.285-.805.295-.277.011-.532-.081-.789-.242-.253-.159-.525-.394-.84-.69Zm-16.205.63Zm9.467 6.462-.002-.002c-2.002-1.485-4.187-2.574-6.113-3.052a23.193 23.193 0 0 0-2.93-.48 11.279 11.279 0 0 0-1.16-.064 2.191 2.191 0 0 0-.364.03c-.08.155-.163.429-.24.806-.085.41-.155.912-.206 1.45-.103 1.081-.126 2.287-.032 3.165.513 4.754 2.581 8.772 6.551 12.582h.001c3.132 3.03 7.03 5.394 11.446 6.883l.003.001 1.4.496 1.42-.496h.002c4.131-1.416 8.183-3.78 11.122-6.53 2.025-1.898 3.07-3.192 4.405-5.477v-.001c.414-.695.981-1.956 1.42-3.075.22-.558.404-1.075.52-1.462.042-.139.074-.257.095-.353-.068.018-.147.04-.236.066-.326.097-.768.245-1.246.422H40.5c-1.93.703-4.821 1.326-7.152 1.534h-.002l-.102.008c-.525.043-.891.073-1.163.145-.27.07-.41.172-.505.35-.109.205-.174.534-.206 1.1-.03.523-.03 1.212-.029 2.134v.196c0 1.784-.023 2.837-.156 3.549a2.86 2.86 0 0 1-.307.9c-.14.25-.318.46-.532.677-.382.4-.764.69-1.192.878-.428.188-.888.267-1.415.267-.813 0-1.507-.161-2.086-.515-.58-.354-1.023-.888-1.357-1.598-.17-.363-.267-.708-.322-1.404-.054-.687-.068-1.734-.068-3.504 0-1.472-.015-2.498-.05-3.18a7.652 7.652 0 0 0-.069-.763 1.384 1.384 0 0 0-.041-.19.274.274 0 0 0-.017-.044 1.494 1.494 0 0 0-.148-.11 5.216 5.216 0 0 0-.366-.212 14.35 14.35 0 0 0-1.064-.504c-1.635-.682-3.79-1.892-5.098-2.861-.48-.356-1.558-1.143-2.406-1.762h-.001Zm-10.6-3.56c-.004.002-.003.002 0 0Zm.06-.06-.002.002.001-.003Z" fill="#FFA5BA" stroke="#FFA5BA" stroke-width=".5"/></svg>