<svg aria-hidden="true" style="position: absolute; width: 0; height: 0; overflow: hidden;" version="1.1" xmlns="http://www.w3.org/2000/svg" xmlns:xlink="http://www.w3.org/1999/xlink">
<defs>
<symbol id="icon-burger" viewBox="0 0 46 32">
<path stroke="#d41443" stroke-width="2.2857" stroke-miterlimit="4" stroke-linecap="butt" stroke-linejoin="miter" style="stroke: var(--color1, #d41443)" d="M0 2.286h45.714M0 16h45.714M0 29.714h45.714"></path>
</symbol>
<symbol id="icon-home" viewBox="0 0 32 32">
<path d="M32 18.451l-16-12.42-16 12.42v-5.064l16-12.42 16 12.42zM28 18v12h-8v-8h-8v8h-8v-12l12-9z"></path>
</symbol>
<symbol id="icon-button-mark" viewBox="0 0 20 32">
<path  d="M0.953 5.565c-0.647-0.585-1.051-1.428-1.051-2.364 0-0.83 0.317-1.585 0.837-2.152l-0.002 0.002c1.175-1.299 3.185-1.422 4.483-0.216l14.191 12.8c1.299 1.175 1.391 3.185 0.216 4.514l-0.247 0.216-14.16 12.8c-0.562 0.509-1.311 0.82-2.133 0.82-1.759 0-3.185-1.426-3.185-3.185 0-0.937 0.405-1.78 1.049-2.363l0.003-0.002 11.563-10.45-11.563-10.419z"></path>
</symbol>
<symbol id="icon-close" viewBox="0 0 32 32">
<path fill="" stroke="#fff" stroke-width="2" stroke-miterlimit="4" stroke-linecap="butt" stroke-linejoin="miter" style="stroke: var(--color2, #fff)" d="M2.52 2l26.96 28M2 29.48l28-26.96"></path>
</symbol>
<symbol id="icon-facebook" viewBox="0 0 32 32">
<path d="M20.446 15.981h-2.611v9.619h-3.955v-9.619h-1.88v-3.379h1.88v-2.187c0-1.564 0.739-4.014 3.991-4.014l2.929 0.012v3.281h-2.125c-0.348 0-0.839 0.176-0.839 0.922v1.989h2.955l-0.345 3.377z"></path>
</symbol>
<symbol id="icon-github" viewBox="0 0 32 32">
<path d="M16 6.588c-5.17 0-9.412 4.242-9.412 9.412 0 4.411 3.096 8.419 7.206 9.412v-3.113c-0.408 0.088-0.781 0.091-1.196-0.031-0.556-0.164-1.008-0.535-1.344-1.099-0.214-0.36-0.593-0.753-0.988-0.724l-0.097-1.098c0.856-0.073 1.594 0.521 2.033 1.258 0.196 0.328 0.421 0.52 0.709 0.605 0.278 0.083 0.577 0.043 0.925-0.080 0.088-0.697 0.408-0.958 0.649-1.327-2.452-0.365-3.429-1.666-3.816-2.692-0.514-1.364-0.238-3.066 0.67-4.143 0.018-0.021 0.050-0.075 0.038-0.113-0.417-1.259 0.090-2.3 0.109-2.41 0.481 0.141 0.559-0.143 2.089 0.786l0.264 0.159c0.111 0.066 0.075 0.028 0.186 0.019 0.59-0.166 1.269-0.266 1.97-0.276l0.006-0c0.668 0.008 1.336 0.104 2.002 0.284l0.086 0.009c-0.008-0.002 0.024-0.006 0.075-0.037 1.911-1.158 1.842-0.779 2.355-0.946 0.019 0.111 0.519 1.169 0.106 2.411-0.056 0.171 1.656 1.739 0.708 4.256-0.388 1.026-1.365 2.328-3.816 2.693 0.314 0.48 0.692 0.734 0.69 1.722v3.886c4.109-0.993 7.206-5 7.206-9.412 0-5.17-4.242-9.412-9.412-9.412z"></path>
</symbol>
<symbol id="icon-home" viewBox="0 0 35 32">
<path d="M34.253 15.613c0.257-0.279 0.414-0.654 0.414-1.064 0-0.475-0.21-0.901-0.543-1.19l-0.002-0.002-14.773-12.925c-0.318-0.269-0.732-0.432-1.184-0.432-0.467 0-0.893 0.174-1.217 0.46l0.002-0.002-14.821 13.589c-0.316 0.288-0.513 0.701-0.513 1.16 0 0.424 0.168 0.809 0.442 1.091l-0-0 0.373 0.387c0.613 0.64 1.611 0.72 2.224 0.171l1.107-0.992v14.523c0 0.893 0.72 1.613 1.613 1.613h5.773c0.891 0 1.613-0.72 1.613-1.613v-10.16h7.373v10.16c-0.013 0.891 0.624 1.613 1.515 1.613h6.123c0.891 0 1.611-0.72 1.611-1.613v-14.32l0.685 0.603c0.376 0.331 1.168 0.064 1.765-0.595l0.421-0.461z"></path>
</symbol>
<symbol id="icon-quotes" viewBox="0 0 43 32">
<path d="M32.014 0c1.928 0 3.75 0.52 5.464 1.561s3.107 2.536 4.178 4.488c1.029 1.951 1.543 4.25 1.543 6.894s-0.643 5.225-1.928 7.74c-0.429 0.91-1.2 2.081-2.315 3.512-1.157 1.43-2.228 2.666-3.214 3.707l-4.050 4.098-2.893-4.813c2.063-1.302 3.824-2.855 5.306-4.646l0.030-0.037c1.542-1.821 2.314-3.49 2.314-5.008 0-0.781-0.171-1.41-0.514-1.886-1.5 1.084-3.172 1.626-5.014 1.626-1.328 0-2.593-0.412-3.793-1.236-1.237-0.782-2.237-1.834-2.935-3.078l-0.022-0.043c-0.771-1.258-1.157-2.558-1.157-3.902 0-1.518 0.45-2.97 1.35-4.358 0.866-1.389 2.011-2.526 3.364-3.356l0.044-0.025c1.37-0.824 2.784-1.236 4.242-1.236zM8.936 0c1.928 0 3.75 0.52 5.464 1.561s3.107 2.536 4.178 4.488c1.029 1.951 1.543 4.25 1.543 6.894 0 1.864-0.236 3.534-0.707 5.008-0.472 1.518-1.286 3.1-2.443 4.748-1.114 1.561-2.164 2.862-3.15 3.902-0.986 1.084-2.7 2.883-5.143 5.398l-2.893-4.813c2.063-1.302 3.824-2.855 5.306-4.646l0.030-0.037c1.542-1.821 2.314-3.49 2.314-5.008 0-0.781-0.172-1.41-0.514-1.886-1.5 1.084-3.172 1.626-5.014 1.626-1.328 0-2.593-0.412-3.793-1.236-1.237-0.782-2.237-1.834-2.935-3.078l-0.022-0.043c-0.771-1.258-1.157-2.558-1.157-3.902 0-1.518 0.429-2.97 1.286-4.358 0.866-1.389 2.011-2.526 3.364-3.356l0.045-0.025c1.37-0.824 2.784-1.236 4.242-1.236z"></path>
</symbol>
<symbol id="icon-telegram" viewBox="0 0 32 32">
<path d="M12.867 18.376l-0.317 4.169c0.455 0 0.651-0.183 0.888-0.401l2.13-1.901 4.414 3.018c0.809 0.421 1.381 0.199 1.6-0.696l2.897-12.673c0.258-1.117-0.433-1.554-1.221-1.28l-17.032 6.086c-1.162 0.422-1.145 1.026-0.198 1.301l4.355 1.264 10.114-5.907c0.476-0.295 0.909-0.132 0.553 0.163l-8.182 6.856z"></path>
</symbol>
<symbol id="icon-vector" viewBox="0 0 26 32">
<path fill="none" stroke="#ffff" style="" stroke-linejoin="round" stroke-linecap="round" stroke-miterlimit="4" stroke-width="6.4" d="M3.542 3.2l16.825 12.8-16.825 12.8"></path>
</symbol>
<symbol id="icon-ellipse" viewBox="0 0 32 32">
<path fill="#c7133e" style="fill: var(--color1, #c7133e)" d="M32 16c0 8.837-7.163 16-16 16s-16-7.163-16-16c0-8.837 7.163-16 16-16s16 7.163 16 16z"></path>
</symbol>
<symbol id="icon-Vector-1" viewBox="0 0 26 32">
<path fill="none" stroke="#d41443" style="stroke: var(--color1, #d41443)" stroke-linejoin="round" stroke-linecap="round" stroke-miterlimit="4" stroke-width="6.4" d="M5.172 3.2l14.169 12.8-14.169 12.8"></path>
</symbol>
<symbol id="icon-close_40px" viewBox="0 0 32 32">
<path  d="M23.733 10.304l-1.504-1.504-5.963 5.963-5.963-5.963-1.504 1.504 5.963 5.963-5.963 5.963 1.504 1.504 5.963-5.963 5.963 5.963 1.504-1.504-5.963-5.963 5.963-5.963z"></path>
</symbol>
<symbol id="icon-arrow-right2" viewBox="0 0 32 32">
<path d="M19.414 27.414l10-10c0.781-0.781 0.781-2.047 0-2.828l-10-10c-0.781-0.781-2.047-0.781-2.828 0s-0.781 2.047 0 2.828l6.586 6.586h-19.172c-1.105 0-2 0.895-2 2s0.895 2 2 2h19.172l-6.586 6.586c-0.39 0.39-0.586 0.902-0.586 1.414s0.195 1.024 0.586 1.414c0.781 0.781 2.047 0.781 2.828 0z"></path>
</symbol>
<symbol id="icon-30716" viewBox="0 0 42 32">
<path d="M40.759 0.020c-0.495 0.066-0.633 0.092-0.907 0.148-0.551 0.122-0.937 0.228-1.112 0.313-0.224 0.109-0.67 0.409-1.313 0.891-0.29 0.218-0.719 0.521-0.957 0.68-0.505 0.333-0.627 0.455-0.795 0.785-0.148 0.294-0.337 0.501-0.805 0.891-0.68 0.564-0.957 0.709-1.6 0.841-0.525 0.109-0.716 0.178-0.98 0.36-0.115 0.079-0.27 0.175-0.35 0.214-0.432 0.221-1.257 0.426-2.398 0.6-0.689 0.106-0.871 0.175-1.478 0.577-0.604 0.399-0.726 0.505-1.095 0.957-0.343 0.416-0.567 0.62-0.759 0.683-0.079 0.030-0.297 0.142-0.485 0.251-0.31 0.185-0.35 0.218-0.445 0.393-0.056 0.102-0.274 0.432-0.485 0.732-0.459 0.656-0.62 0.937-0.782 1.336-0.066 0.168-0.201 0.416-0.297 0.548-0.096 0.135-0.518 0.749-0.937 1.366-1.072 1.577-1.115 1.633-1.27 1.702-0.244 0.109-0.528 0.33-0.98 0.762-0.548 0.521-0.762 0.666-1.781 1.191-0.835 0.432-0.96 0.505-1.297 0.749l-0.214 0.155-0.429 0.040c-0.762 0.076-1.039 0.155-1.343 0.389-0.3 0.231-0.422 0.254-1.214 0.231-0.373-0.010-0.749-0.007-0.841 0.007-0.139 0.023-0.191 0.017-0.343-0.049-0.099-0.043-0.231-0.089-0.297-0.099-0.106-0.017-0.132-0.043-0.228-0.211-0.32-0.581-0.732-0.924-1.343-1.122-0.343-0.112-0.468-0.191-0.544-0.346-0.145-0.3-0.086-0.363 0.37-0.393 1.013-0.069 1.722-0.208 2.24-0.439l0.185-0.079 0.086-0.32c0.168-0.627 0.188-0.848 0.109-1.155-0.089-0.337-0.303-0.591-0.808-0.976-0.287-0.218-0.511-0.422-0.587-0.534-0.050-0.076-0.046-0.086 0.013-0.155 0.040-0.040 0.089-0.119 0.115-0.172 0.112-0.224 0.102-0.376-0.056-0.973-0.178-0.676-0.073-0.894 0.627-1.313 0.373-0.224 0.445-0.3 0.468-0.511 0.023-0.195-0.036-0.363-0.185-0.528-0.162-0.178-0.353-0.257-0.676-0.277-0.63-0.040-1.376 0.254-1.917 0.755-0.287 0.267-0.376 0.449-0.495 1-0.043 0.211-0.115 0.445-0.155 0.521-0.076 0.135-0.274 0.297-0.409 0.337-0.066 0.017-0.073 0.003-0.086-0.188l-0.013-0.208-0.439-0.429c-0.544-0.534-0.673-0.623-0.911-0.63-0.185-0.007-0.287-0.050-0.841-0.343-0.284-0.152-0.327-0.218-0.33-0.501 0-0.175 0.135-0.647 0.264-0.927 0.069-0.145 0.346-0.3 0.825-0.468 0.505-0.175 0.808-0.327 0.881-0.432 0.069-0.109 0.092-0.416 0.043-0.591-0.056-0.198-0.264-0.389-0.501-0.462-0.505-0.152-1.247-0.145-1.742 0.016-0.851 0.28-1.362 0.68-1.603 1.254-0.079 0.198-0.158 0.33-0.224 0.386-0.096 0.079-0.115 0.082-0.35 0.066-0.472-0.040-0.947-0.162-1.534-0.396-0.181-0.069-0.422-0.155-0.531-0.188l-0.205-0.059-0.020 0.168c-0.050 0.462-0.092 1.392-0.076 1.706 0.036 0.706 0.201 0.986 0.95 1.636 0.175 0.152 0.363 0.33 0.419 0.402l0.102 0.129-0.452 0.396c-0.247 0.221-0.607 0.525-0.798 0.68s-0.558 0.495-0.812 0.755c-0.376 0.383-0.508 0.498-0.68 0.584-0.168 0.082-0.247 0.148-0.356 0.294-0.307 0.412-0.492 0.934-0.548 1.527-0.026 0.3-0.017 0.323 0.356 0.812 0.356 0.472 0.435 0.604 0.567 0.977 0.27 0.762 0.541 1.039 1.141 1.191 0.363 0.089 1.135 0.158 1.567 0.142 0.333-0.013 0.462-0.033 0.805-0.135 0.224-0.066 0.482-0.135 0.574-0.155 0.185-0.033 0.224-0.017 0.713 0.313 0.139 0.096 0.333 0.205 0.435 0.244 0.148 0.063 0.191 0.096 0.221 0.185 0.023 0.059 0.139 0.264 0.261 0.452 0.224 0.35 0.37 0.653 0.373 0.775 0 0.063-0.016 0.066-0.191 0.053-0.211-0.017-0.439 0.053-0.93 0.277-0.277 0.129-0.284 0.129-0.676 0.125-0.218 0-0.528-0.026-0.689-0.056-0.346-0.066-0.65-0.069-0.818-0.010-0.066 0.023-0.231 0.132-0.366 0.238-0.198 0.155-0.244 0.208-0.228 0.261 0.023 0.082 0.020 0.389-0.007 0.472-0.013 0.033-0.089 0.082-0.178 0.115-0.086 0.033-0.241 0.125-0.343 0.208-0.165 0.129-0.191 0.165-0.211 0.3-0.030 0.208 0.007 0.515 0.082 0.663 0.178 0.346 0.521 0.472 0.99 0.363 0.155-0.036 0.175-0.033 0.244 0.036 0.043 0.040 0.125 0.165 0.185 0.28 0.125 0.251 0.188 0.313 0.343 0.34 0.254 0.040 0.343-0.007 0.696-0.366 0.373-0.379 0.508-0.465 1.168-0.749 0.247-0.106 0.459-0.211 0.462-0.228 0.007-0.020 0.059-0.099 0.119-0.175 0.092-0.122 0.125-0.142 0.267-0.158 0.092-0.013 0.241-0.053 0.33-0.089 0.092-0.036 0.211-0.073 0.264-0.079l0.099-0.010 0.040 0.277c0.119 0.848 0.515 1.63 1.178 2.339 0.119 0.129 0.155 0.188 0.135 0.221-0.020 0.023-0.135 0.162-0.264 0.303-0.125 0.145-0.336 0.389-0.465 0.544l-0.238 0.28-0.257 0.040c-0.327 0.053-0.736 0.155-1.603 0.399-0.373 0.109-0.841 0.224-1.039 0.264-0.594 0.119-1.356 0.122-1.88 0.013-0.102-0.020-0.112-0.013-0.158 0.096-0.063 0.152-0.063 0.346 0.003 0.617s0.079 0.673 0.023 0.729c-0.063 0.063-0.053 0.145 0.040 0.343 0.109 0.228 0.369 0.468 0.802 0.742 0.185 0.119 0.337 0.224 0.337 0.234 0 0.043-0.271 0.129-0.511 0.165-0.317 0.046-0.577 0.013-1.468-0.201-0.373-0.089-0.736-0.165-0.805-0.172l-0.132-0.010-0.079 0.247c-0.059 0.195-0.073 0.3-0.063 0.492 0.013 0.238 0.020 0.251 0.135 0.343 0.181 0.148 0.165 0.224-0.115 0.482-0.333 0.31-0.383 0.432-0.277 0.683 0.056 0.139 0.119 0.195 0.432 0.393 0.541 0.343 1.217 0.531 2.042 0.567 0.703 0.030 1.329-0.056 1.963-0.264l0.313-0.106 0.023-0.191c0.013-0.109 0.056-0.244 0.096-0.307 0.069-0.112 0.092-0.122 0.343-0.162 0.221-0.033 0.554-0.122 0.66-0.172 0.056-0.026 0.201-0.148 0.323-0.27l0.224-0.218 0.313 0.007c0.383 0.010 0.492-0.033 0.716-0.3 0.089-0.102 0.205-0.198 0.267-0.221 0.099-0.036 0.115-0.056 0.132-0.195 0.023-0.178 0.129-0.34 0.432-0.666 0.148-0.155 0.228-0.274 0.277-0.412 0.115-0.32 0.135-0.343 0.465-0.518 0.29-0.155 0.36-0.211 0.94-0.798 0.538-0.544 0.656-0.647 0.841-0.732l0.214-0.102 0.247 0.082c0.135 0.046 0.61 0.178 1.056 0.297s0.963 0.261 1.151 0.313c0.416 0.115 0.716 0.125 1.171 0.033 0.393-0.079 0.749-0.122 1.57-0.188 0.894-0.069 1.211-0.119 2.194-0.343 1.151-0.264 1.415-0.35 1.801-0.587 0.172-0.109 0.478-0.29 0.676-0.402 0.198-0.115 0.62-0.373 0.937-0.577s0.643-0.402 0.719-0.442c0.079-0.040 0.208-0.132 0.28-0.198 0.152-0.139 0.511-0.333 0.617-0.333 0.063 0 0.066 0.020 0.066 0.567v0.571l0.274 0.092c0.419 0.145 0.495 0.162 0.534 0.109 0.020-0.026 0.069-0.040 0.115-0.030 0.102 0.017 0.132-0.026 0.284-0.426 0.125-0.333 0.221-0.488 0.303-0.488 0.026 0 0.115 0.030 0.195 0.069l0.142 0.069v0.241c0 0.261 0.056 0.706 0.099 0.772 0.017 0.030 0.165 0.043 0.498 0.046 0.409 0.007 0.495-0.003 0.62-0.056l0.142-0.066-0.023-0.396c-0.020-0.337-0.013-0.422 0.033-0.541 0.106-0.261 0.337-0.35 0.495-0.191 0.046 0.046 0.109 0.181 0.148 0.32 0.129 0.459 0.142 0.492 0.188 0.528 0.132 0.112 0.772-0.168 1.23-0.538 0.188-0.152 0.195-0.162 0.175-0.28-0.010-0.069-0.069-0.231-0.129-0.356-0.059-0.129-0.119-0.297-0.132-0.376l-0.023-0.145 0.096 0.020c0.937 0.201 1.481 0.139 1.64-0.185 0.086-0.172 0.053-0.264-0.162-0.472-0.102-0.096-0.178-0.195-0.172-0.218 0.010-0.026 0.234-0.073 0.64-0.129l0.623-0.086 0.132 0.148c0.178 0.198 0.409 0.518 0.584 0.802l0.142 0.231 0.808 0.485c0.445 0.264 0.986 0.574 1.204 0.683 0.518 0.264 1.062 0.445 1.336 0.445 0.366 0 0.67 0.201 1.145 0.765 0.231 0.274 1.333 1.296 1.818 1.689 0.152 0.122 0.379 0.29 0.505 0.373 0.211 0.142 0.231 0.148 0.327 0.109 0.152-0.063 0.442-0.399 0.558-0.64 0.119-0.251 0.211-0.597 0.287-1.059 0.043-0.264 0.059-0.663 0.069-1.97l0.017-1.636-0.145-0.092c-0.076-0.049-0.267-0.148-0.422-0.221-0.155-0.069-0.284-0.142-0.29-0.158s-0.036-0.030-0.066-0.030c-0.030 0-0.366-0.129-0.749-0.284-0.379-0.158-0.722-0.284-0.759-0.284s-0.178 0.010-0.317 0.023c-0.346 0.033-0.653-0.040-1.105-0.264-0.904-0.445-1.475-1.158-1.55-1.93-0.017-0.155-0.046-0.257-0.119-0.369-0.053-0.082-0.168-0.32-0.257-0.525-0.092-0.205-0.205-0.429-0.251-0.495-0.267-0.386-0.861-0.541-1.801-0.465-0.277 0.023-0.722 0.059-0.993 0.079-0.838 0.069-1.23-0.036-1.63-0.435-0.274-0.274-0.393-0.525-0.439-0.924-0.043-0.369-0.172-1.244-0.267-1.781-0.125-0.732-0.162-1.072-0.162-1.531 0-0.498-0.013-0.571-0.181-1.026-0.059-0.165-0.142-0.429-0.181-0.594-0.162-0.666-0.294-0.864-0.93-1.369-0.66-0.528-0.713-0.62-0.511-0.904 0.231-0.327 0.581-0.742 0.848-1.009 0.307-0.307 0.769-0.594 0.953-0.594 0.139 0 0.267-0.056 0.383-0.165 0.165-0.158 0.35-0.208 1.006-0.264 0.541-0.046 0.713-0.099 1.29-0.412 0.28-0.155 0.713-0.36 0.957-0.459 0.241-0.096 0.627-0.261 0.854-0.366 0.228-0.102 0.531-0.234 0.676-0.294s0.356-0.175 0.472-0.261c0.317-0.231 0.521-0.34 0.901-0.468 0.188-0.066 0.429-0.172 0.531-0.234 0.119-0.073 0.284-0.135 0.445-0.168 0.158-0.036 0.32-0.096 0.422-0.162 0.228-0.142 0.528-0.29 1.204-0.591 0.726-0.323 1.158-0.567 1.419-0.805l0.205-0.185 0.017-0.254c0.017-0.205 0.030-0.261 0.076-0.274 0.119-0.036 0.323-0.29 0.495-0.614 0.122-0.231 0.274-0.445 0.485-0.686 0.333-0.376 0.439-0.558 0.462-0.775l0.017-0.142-0.158-0.043c-0.158-0.040-1.118-0.076-1.316-0.046z"></path>
</symbol>
</defs>
</svg>